<svg width="30" height="30" viewBox="0 0 26 26" fill="none" xmlns="http://www.w3.org/2000/svg">
<path d="M12.9998 0C11.2998 0 9.99976 1.3 9.99976 3V9C9.99976 10.7 11.2998 12 12.9998 12H18.9998L22.9998 16V12C24.6998 12 25.9998 10.7 25.9998 9V3C25.9998 1.3 24.6998 0 22.9998 0H12.9998ZM17.1878 3H18.9058L20.5938 9H19.0938L18.6868 7.5H17.1868L16.8128 9H15.4998L17.1878 3ZM17.9998 4C17.8998 4.4 17.7878 4.888 17.6868 5.188L17.4068 6.5H18.5938L18.3118 5.187C18.1128 4.888 17.9998 4.4 17.9998 4ZM2.99976 10C1.29976 10 -0.000244141 11.3 -0.000244141 13V19C-0.000244141 20.7 1.29976 22 2.99976 22V26L6.99976 22H12.9998C14.6998 22 15.9998 20.7 15.9998 19V13H12.9998C11.0998 13 9.59376 11.7 9.09376 10H2.99976ZM7.59376 12.906C9.29376 12.906 10.0938 14.306 10.0938 15.906C10.0938 17.306 9.61276 18.194 8.81276 18.594C9.21276 18.794 9.68676 18.9 10.1868 19L9.81276 20C9.11276 19.8 8.38676 19.488 7.68676 19.187C7.58676 19.087 7.41176 19.094 7.31176 19.094C6.11176 18.994 4.99976 18 4.99976 16C4.99976 14.3 5.99376 12.906 7.59376 12.906ZM7.59376 14C6.79376 14 6.40576 14.9 6.40576 16C6.40576 17.2 6.79376 18 7.59376 18C8.39376 18 8.81176 17.1 8.81176 16C8.81176 14.9 8.39376 14 7.59376 14Z" fill="#828F9B"/>
</svg>
