<svg width="25" height="25" viewBox="0 0 20 20" fill="none" xmlns="http://www.w3.org/2000/svg">
<path d="M2.99976 10H0.999756L9.99976 1L18.9998 10H16.9998M2.99976 10V17C2.99976 17.5304 3.21047 18.0391 3.58554 18.4142C3.96061 18.7893 4.46932 19 4.99976 19H14.9998C15.5302 19 16.0389 18.7893 16.414 18.4142C16.789 18.0391 16.9998 17.5304 16.9998 17V10" stroke="#828F9B" stroke-width="2" stroke-linecap="round" stroke-linejoin="round"/>
<path d="M6.99976 19V13C6.99976 12.4696 7.21047 11.9609 7.58554 11.5858C7.96062 11.2107 8.46932 11 8.99976 11H10.9998C11.5302 11 12.0389 11.2107 12.414 11.5858C12.789 11.9609 12.9998 12.4696 12.9998 13V19" stroke="#828F9B" stroke-width="2" stroke-linecap="round" stroke-linejoin="round"/>
</svg>
