<svg width="100" height="100" viewBox="0 0 140 140" fill="none" xmlns="http://www.w3.org/2000/svg">
<path d="M61.2776 135.333C61.2776 135.333 71.4252 114.597 64.6345 101.485C61.314 95.0733 55.3383 91.2902 49.6482 87.688C43.7018 83.9235 38.0673 80.3564 36.101 74.193C36.101 74.193 29.3865 76.9374 32.5915 84.7134C35.7965 92.4894 42.0518 96.3011 42.0518 96.3011C14.6611 84.7346 7.62973 73.4133 10.9243 44.004C3.1487 61.9973 2.684 74.4979 9.17013 87.6103C15.6563 100.723 23.6644 106.364 40.9837 117.037C58.303 127.71 61.2776 135.333 61.2776 135.333Z" fill="url(#paint0_linear_9_4327)"/>
<path d="M78.7224 135.333C78.7224 135.333 68.5749 114.597 75.3655 101.485C78.6861 95.0733 84.6618 91.2902 90.3519 87.688C96.2983 83.9235 101.933 80.3564 103.899 74.193C103.899 74.193 110.614 76.9374 107.409 84.7134C104.204 92.4894 97.9482 96.3011 97.9482 96.3011C125.339 84.7346 132.37 73.4133 129.076 44.004C136.851 61.9973 137.316 74.4979 130.83 87.6103C124.344 100.723 116.336 106.364 99.0163 117.037C81.697 127.71 78.7224 135.333 78.7224 135.333Z" fill="url(#paint1_linear_9_4327)"/>
<path fill-rule="evenodd" clip-rule="evenodd" d="M85.8342 4.66741C88.4337 4.66741 91.0292 5.03379 93.4969 5.86123C108.703 10.8012 114.182 27.4736 109.605 42.0465C107.01 49.4935 102.766 56.2901 97.2089 61.8434C89.2536 69.5416 80.5238 76.3752 71.1266 82.262L70.0966 82.8836L69.0255 82.2208C59.5953 76.3752 50.8161 69.5416 42.7867 61.8023C37.2662 56.2489 33.0187 49.4935 30.382 42.0465C25.7267 27.4736 31.206 10.8012 46.5769 5.77478C47.7716 5.36312 49.0034 5.07495 50.2393 4.9144L51.434 4.66675C52.6122 4.66675 52.9683 4.66696 53.2731 4.66715C53.5012 4.66728 53.7006 4.66741 54.1943 4.66741H54.6475C57.2429 4.74562 59.756 5.19845 62.1908 6.0259H62.4339C62.5986 6.10411 62.7222 6.19056 62.8046 6.26878C63.7151 6.56106 64.5761 6.89039 65.4001 7.34322L66.9656 8.04305C67.3439 8.24465 67.7685 8.55269 68.1355 8.81891C68.368 8.98759 68.5773 9.13948 68.7371 9.23688C68.8043 9.27651 68.8727 9.31636 68.9415 9.35654C69.2948 9.56259 69.6628 9.77723 69.973 10.0149C74.5501 6.51989 80.1077 4.62624 85.8342 4.66741ZM72.3035 26.2145C71.6854 25.5969 70.8471 25.25 69.973 25.25C69.0989 25.25 68.2606 25.5969 67.6425 26.2145C67.0244 26.8322 66.6772 27.6698 66.6772 28.5433V38.4232H56.7897C55.9156 38.4232 55.0773 38.7702 54.4592 39.3878C53.8411 40.0054 53.4939 40.8431 53.4939 41.7165C53.4939 42.59 53.8411 43.4276 54.4592 44.0452C55.0773 44.6629 55.9156 45.0098 56.7897 45.0098H66.6772V54.8898C66.6772 55.7632 67.0244 56.6009 67.6425 57.2185C68.2606 57.8361 69.0989 58.1831 69.973 58.1831C70.8471 58.1831 71.6854 57.8361 72.3035 57.2185C72.9216 56.6009 73.2688 55.7632 73.2688 54.8898V45.0098H83.1562C84.0303 45.0098 84.8687 44.6629 85.4867 44.0452C86.1048 43.4276 86.4521 42.59 86.4521 41.7165C86.4521 40.8431 86.1048 40.0054 85.4867 39.3878C84.8687 38.7702 84.0303 38.4232 83.1562 38.4232H73.2688V28.5433C73.2688 27.6698 72.9216 26.8322 72.3035 26.2145Z" fill="url(#paint2_linear_9_4327)"/>
<defs>
<linearGradient id="paint0_linear_9_4327" x1="135.333" y1="135.333" x2="-20.1482" y2="90.2529" gradientUnits="userSpaceOnUse">
<stop stop-color="#5774CB"/>
<stop offset="1" stop-color="#5774CB"/>
</linearGradient>
<linearGradient id="paint1_linear_9_4327" x1="135.333" y1="135.333" x2="-20.1482" y2="90.2529" gradientUnits="userSpaceOnUse">
<stop stop-color="#5774CB"/>
<stop offset="1" stop-color="#5774CB"/>
</linearGradient>
<linearGradient id="paint2_linear_9_4327" x1="135.333" y1="135.333" x2="-20.1482" y2="90.2529" gradientUnits="userSpaceOnUse">
<stop stop-color="#5774CB"/>
<stop offset="1" stop-color="#5774CB"/>
</linearGradient>
</defs>
</svg>
