<svg width="25" height="25" viewBox="0 0 25 25" fill="none" xmlns="http://www.w3.org/2000/svg">
<mask id="mask0_105_5183" style="mask-type:alpha" maskUnits="userSpaceOnUse" x="0" y="0" width="25" height="25">
<rect x="0.966309" y="0.873535" width="24" height="24" fill="#D9D9D9"/>
</mask>
<g mask="url(#mask0_105_5183)">
<path d="M1.96631 20.8735V18.0735C1.96631 17.5069 2.11214 16.986 2.40381 16.511C2.69548 16.036 3.08298 15.6735 3.56631 15.4235C4.59964 14.9069 5.64964 14.5194 6.71631 14.261C7.78298 14.0027 8.86631 13.8735 9.96631 13.8735C11.0663 13.8735 12.1496 14.0027 13.2163 14.261C14.283 14.5194 15.333 14.9069 16.3663 15.4235C16.8496 15.6735 17.2371 16.036 17.5288 16.511C17.8205 16.986 17.9663 17.5069 17.9663 18.0735V20.8735H1.96631ZM19.9663 20.8735V17.8735C19.9663 17.1402 19.7621 16.436 19.3538 15.761C18.9455 15.086 18.3663 14.5069 17.6163 14.0235C18.4663 14.1235 19.2663 14.2944 20.0163 14.536C20.7663 14.7777 21.4663 15.0735 22.1163 15.4235C22.7163 15.7569 23.1746 16.1277 23.4913 16.536C23.808 16.9444 23.9663 17.3902 23.9663 17.8735V20.8735H19.9663ZM9.96631 12.8735C8.86631 12.8735 7.92464 12.4819 7.14131 11.6985C6.35798 10.9152 5.96631 9.97354 5.96631 8.87354C5.96631 7.77354 6.35798 6.83187 7.14131 6.04854C7.92464 5.2652 8.86631 4.87354 9.96631 4.87354C11.0663 4.87354 12.008 5.2652 12.7913 6.04854C13.5746 6.83187 13.9663 7.77354 13.9663 8.87354C13.9663 9.97354 13.5746 10.9152 12.7913 11.6985C12.008 12.4819 11.0663 12.8735 9.96631 12.8735ZM19.9663 8.87354C19.9663 9.97354 19.5746 10.9152 18.7913 11.6985C18.008 12.4819 17.0663 12.8735 15.9663 12.8735C15.783 12.8735 15.5496 12.8527 15.2663 12.811C14.983 12.7694 14.7496 12.7235 14.5663 12.6735C15.0163 12.1402 15.3621 11.5485 15.6038 10.8985C15.8455 10.2485 15.9663 9.57354 15.9663 8.87354C15.9663 8.17354 15.8455 7.49854 15.6038 6.84854C15.3621 6.19854 15.0163 5.60687 14.5663 5.07354C14.7996 4.9902 15.033 4.93604 15.2663 4.91104C15.4996 4.88604 15.733 4.87354 15.9663 4.87354C17.0663 4.87354 18.008 5.2652 18.7913 6.04854C19.5746 6.83187 19.9663 7.77354 19.9663 8.87354ZM3.96631 18.8735H15.9663V18.0735C15.9663 17.8902 15.9205 17.7235 15.8288 17.5735C15.7371 17.4235 15.6163 17.3069 15.4663 17.2235C14.5663 16.7735 13.658 16.436 12.7413 16.211C11.8246 15.986 10.8996 15.8735 9.96631 15.8735C9.03298 15.8735 8.10798 15.986 7.19131 16.211C6.27464 16.436 5.36631 16.7735 4.46631 17.2235C4.31631 17.3069 4.19548 17.4235 4.10381 17.5735C4.01214 17.7235 3.96631 17.8902 3.96631 18.0735V18.8735ZM9.96631 10.8735C10.5163 10.8735 10.9871 10.6777 11.3788 10.286C11.7705 9.89437 11.9663 9.42354 11.9663 8.87354C11.9663 8.32354 11.7705 7.8527 11.3788 7.46104C10.9871 7.06937 10.5163 6.87354 9.96631 6.87354C9.41631 6.87354 8.94548 7.06937 8.55381 7.46104C8.16214 7.8527 7.96631 8.32354 7.96631 8.87354C7.96631 9.42354 8.16214 9.89437 8.55381 10.286C8.94548 10.6777 9.41631 10.8735 9.96631 10.8735Z" fill="#828F9B"/>
</g>
</svg>
