<svg width="25" height="25" viewBox="0 0 18 18" fill="none" xmlns="http://www.w3.org/2000/svg">
<path d="M0.999756 15C0.999756 13.9391 1.42118 12.9217 2.17133 12.1716C2.92147 11.4214 3.93889 11 4.99976 11H12.9998C14.0606 11 15.078 11.4214 15.8282 12.1716C16.5783 12.9217 16.9998 13.9391 16.9998 15C16.9998 15.5304 16.789 16.0391 16.414 16.4142C16.0389 16.7893 15.5302 17 14.9998 17H2.99976C2.46932 17 1.96061 16.7893 1.58554 16.4142C1.21047 16.0391 0.999756 15.5304 0.999756 15Z" stroke="#828F9B" stroke-width="2" stroke-linejoin="round"/>
<path d="M8.99976 7C10.6566 7 11.9998 5.65685 11.9998 4C11.9998 2.34315 10.6566 1 8.99976 1C7.3429 1 5.99976 2.34315 5.99976 4C5.99976 5.65685 7.3429 7 8.99976 7Z" stroke="#828F9B" stroke-width="2"/>
</svg>
