<svg width="30" height="30" viewBox="0 0 24 24" fill="none" xmlns="http://www.w3.org/2000/svg">
<path d="M14.9998 14C12.3298 14 6.99976 15.33 6.99976 18V20H22.9998V18C22.9998 15.33 17.6698 14 14.9998 14ZM5.99976 10V7H3.99976V10H0.999756V12H3.99976V15H5.99976V12H8.99976V10M14.9998 12C16.0606 12 17.078 11.5786 17.8282 10.8284C18.5783 10.0783 18.9998 9.06087 18.9998 8C18.9998 6.93913 18.5783 5.92172 17.8282 5.17157C17.078 4.42143 16.0606 4 14.9998 4C13.9389 4 12.9215 4.42143 12.1713 5.17157C11.4212 5.92172 10.9998 6.93913 10.9998 8C10.9998 9.06087 11.4212 10.0783 12.1713 10.8284C12.9215 11.5786 13.9389 12 14.9998 12Z" fill="#828F9B"/>
</svg>
