<svg width="26" height="26" viewBox="0 0 16 16" fill="none" xmlns="http://www.w3.org/2000/svg">
<g clip-path="url(#clip0_102_5159)">
<path d="M-0.000244141 2C-0.000244141 1.46957 0.21047 0.960859 0.585542 0.585786C0.960615 0.210714 1.46932 0 1.99976 0L13.9998 0C14.5302 0 15.0389 0.210714 15.414 0.585786C15.789 0.960859 15.9998 1.46957 15.9998 2V14C15.9998 14.5304 15.789 15.0391 15.414 15.4142C15.0389 15.7893 14.5302 16 13.9998 16H1.99976C1.46932 16 0.960615 15.7893 0.585542 15.4142C0.21047 15.0391 -0.000244141 14.5304 -0.000244141 14V2ZM14.9998 4H10.9998V7H14.9998V4ZM14.9998 8H10.9998V11H14.9998V8ZM14.9998 12H10.9998V15H13.9998C14.265 15 14.5193 14.8946 14.7069 14.7071C14.8944 14.5196 14.9998 14.2652 14.9998 14V12ZM9.99976 15V12H5.99976V15H9.99976ZM4.99976 15V12H0.999756V14C0.999756 14.2652 1.10511 14.5196 1.29265 14.7071C1.48019 14.8946 1.73454 15 1.99976 15H4.99976ZM0.999756 11H4.99976V8H0.999756V11ZM0.999756 7H4.99976V4H0.999756V7ZM5.99976 4V7H9.99976V4H5.99976ZM9.99976 8H5.99976V11H9.99976V8Z" fill="#828F9B"/>
</g>
<defs>
<clipPath id="clip0_102_5159">
<rect width="16" height="16" fill="white" transform="translate(-0.000244141)"/>
</clipPath>
</defs>
</svg>
