<svg width="131" height="131" viewBox="0 0 131 131" fill="none" xmlns="http://www.w3.org/2000/svg">
<path d="M56.6109 130.667C56.6109 130.667 66.7585 109.931 59.9678 96.8183C56.6473 90.4065 50.6716 86.6235 44.9815 83.0212C39.0351 79.2567 33.4006 75.6897 31.4343 69.5262C31.4343 69.5262 24.7198 72.2707 27.9248 80.0467C31.1298 87.8226 37.3851 91.6344 37.3851 91.6344C9.99444 80.0678 2.96304 68.7466 6.25764 39.3372C-1.51798 57.3305 -1.98268 69.8312 4.50345 82.9436C10.9896 96.056 18.9977 101.697 36.317 112.37C53.6363 123.043 56.6109 130.667 56.6109 130.667Z" fill="url(#paint0_linear_420_6245)"/>
<path d="M74.0557 130.667C74.0557 130.667 63.9082 109.931 70.6988 96.8183C74.0194 90.4065 79.9951 86.6235 85.6852 83.0212C91.6316 79.2567 97.2661 75.6897 99.2324 69.5262C99.2324 69.5262 105.947 72.2707 102.742 80.0467C99.5368 87.8226 93.2815 91.6344 93.2815 91.6344C120.672 80.0678 127.704 68.7466 124.409 39.3372C132.185 57.3305 132.649 69.8312 126.163 82.9436C119.677 96.056 111.669 101.697 94.3496 112.37C77.0303 123.043 74.0557 130.667 74.0557 130.667Z" fill="url(#paint1_linear_420_6245)"/>
<path fill-rule="evenodd" clip-rule="evenodd" d="M81.1675 0.000657313C83.7671 0.000657313 86.3625 0.367038 88.8303 1.19448C104.036 6.13445 109.516 22.8069 104.939 37.3798C102.343 44.8268 98.0997 51.6233 92.5422 57.1767C84.5869 64.8748 75.8571 71.7084 66.4599 77.5952L65.4299 78.2169L64.3588 77.5541C54.9286 71.7084 46.1494 64.8748 38.12 57.1355C32.5995 51.5822 28.352 44.8268 25.7153 37.3798C21.06 22.8069 26.5393 6.13445 41.9102 1.10803C43.1049 0.69637 44.3367 0.408205 45.5726 0.247656L46.7673 0C47.9455 0 48.3016 0.000215043 48.6064 0.00039913C48.8345 0.000536889 49.0339 0.000657313 49.5276 0.000657313H49.9808C52.5763 0.0788735 55.0893 0.531704 57.5241 1.35915H57.7672C57.932 1.43736 58.0555 1.52381 58.1379 1.60203C59.0484 1.89431 59.9095 2.22364 60.7334 2.67647L62.2989 3.3763C62.6772 3.5779 63.1018 3.88594 63.4688 4.15216C63.7013 4.32084 63.9106 4.47273 64.0704 4.57013C64.1376 4.60976 64.206 4.64962 64.2749 4.68979C64.6281 4.89584 64.9961 5.11048 65.3064 5.34817C69.8834 1.85315 75.441 -0.0405091 81.1675 0.000657313ZM67.6368 21.5478C67.0187 20.9302 66.1804 20.5832 65.3063 20.5832C64.4322 20.5832 63.5939 20.9302 62.9758 21.5478C62.3577 22.1654 62.0105 23.0031 62.0105 23.8765V33.7565H52.123C51.2489 33.7565 50.4106 34.1034 49.7925 34.7211C49.1744 35.3387 48.8272 36.1763 48.8272 37.0498C48.8272 37.9232 49.1744 38.7609 49.7925 39.3785C50.4106 39.9961 51.2489 40.3431 52.123 40.3431H62.0105V50.223C62.0105 51.0965 62.3577 51.9341 62.9758 52.5518C63.5939 53.1694 64.4322 53.5163 65.3063 53.5163C66.1804 53.5163 67.0187 53.1694 67.6368 52.5518C68.2549 51.9341 68.6021 51.0965 68.6021 50.223V40.3431H78.4896C79.3637 40.3431 80.202 39.9961 80.8201 39.3785C81.4381 38.7609 81.7854 37.9232 81.7854 37.0498C81.7854 36.1763 81.4381 35.3387 80.8201 34.7211C80.202 34.1034 79.3637 33.7565 78.4896 33.7565H68.6021V23.8765C68.6021 23.0031 68.2549 22.1654 67.6368 21.5478Z" fill="url(#paint2_linear_420_6245)"/>
<defs>
<linearGradient id="paint0_linear_420_6245" x1="130.667" y1="130.667" x2="-24.8149" y2="85.5862" gradientUnits="userSpaceOnUse">
<stop stop-color="white"/>
<stop offset="1" stop-color="white"/>
</linearGradient>
<linearGradient id="paint1_linear_420_6245" x1="130.667" y1="130.667" x2="-24.8149" y2="85.5862" gradientUnits="userSpaceOnUse">
<stop stop-color="white"/>
<stop offset="1" stop-color="white"/>
</linearGradient>
<linearGradient id="paint2_linear_420_6245" x1="130.667" y1="130.667" x2="-24.8149" y2="85.5862" gradientUnits="userSpaceOnUse">
<stop stop-color="white"/>
<stop offset="1" stop-color="white"/>
</linearGradient>
</defs>
</svg>
