<svg width="46" height="48" viewBox="0 0 46 48" fill="none" xmlns="http://www.w3.org/2000/svg">
<path d="M10 0V5H5V15C5 17.6522 6.05357 20.1957 7.92893 22.0711C9.8043 23.9464 12.3478 25 15 25C17.6522 25 20.1957 23.9464 22.0711 22.0711C23.9464 20.1957 25 17.6522 25 15V5H20V0H27.5C28.163 0 28.7989 0.263392 29.2678 0.732233C29.7366 1.20107 30 1.83696 30 2.5V15C29.9995 18.5449 28.744 21.9752 26.456 24.6829C24.168 27.3905 20.9952 29.2007 17.5 29.7925V33.75C17.498 35.7993 18.2154 37.7842 19.527 39.3587C20.8386 40.9333 22.6613 41.9975 24.6771 42.3658C26.693 42.7342 28.7743 42.3833 30.5579 41.3744C32.3416 40.3655 33.7146 38.7625 34.4375 36.845C32.829 36.1234 31.5262 34.8583 30.7576 33.2717C29.9891 31.6852 29.804 29.8786 30.2348 28.1692C30.6656 26.4597 31.6849 24.9567 33.1136 23.9239C34.5423 22.8911 36.2891 22.3946 38.0474 22.5215C39.8058 22.6485 41.4632 23.3907 42.7287 24.618C43.9942 25.8453 44.787 27.4792 44.9678 29.2328C45.1486 30.9864 44.706 32.7477 43.7175 34.2074C42.729 35.6671 41.2579 36.7319 39.5625 37.215C38.7187 40.4514 36.7245 43.2694 33.9532 45.1419C31.1819 47.0144 27.8233 47.8129 24.5058 47.3882C21.1883 46.9635 18.1391 45.3446 15.9289 42.8343C13.7187 40.3241 12.4988 37.0946 12.4975 33.75V29.7925C9.00278 29.2002 5.83058 27.3898 3.54304 24.6822C1.25551 21.9746 0.000354603 18.5446 0 15V2.5C0 1.83696 0.263393 1.20107 0.732234 0.732233C1.20107 0.263392 1.83696 0 2.5 0H10Z" fill="black"/>
</svg>
