<svg width="78" height="60" viewBox="0 0 78 60" fill="none" xmlns="http://www.w3.org/2000/svg">
<path d="M25.2819 8.00114C25.3065 9.06704 25.1179 10.1271 24.7271 11.1191C24.3362 12.111 23.751 13.0149 23.0059 13.7775C22.2608 14.54 21.3707 15.146 20.3881 15.5597C19.4054 15.9734 18.35 16.1865 17.2838 16.1865C16.2176 16.1865 15.1622 15.9734 14.1795 15.5597C13.1969 15.146 12.3068 14.54 11.5617 13.7775C10.8166 13.0149 10.2314 12.111 9.84052 11.1191C9.44967 10.1271 9.26104 9.06704 9.28571 8.00114C9.32006 5.90231 10.1779 3.90105 11.6743 2.42895C13.1707 0.956844 15.1857 0.131836 17.2849 0.131836C19.384 0.131836 21.399 0.956844 22.8954 2.42895C24.3918 3.90105 25.2497 5.90231 25.284 8.00114H25.2819Z" fill="url(#paint0_linear_428_6740)"/>
<path fill-rule="evenodd" clip-rule="evenodd" d="M7.91883 34.2717C7.3165 35.2354 6.356 35.9204 5.24864 36.176C4.14127 36.4315 2.97773 36.2367 2.01401 35.6344C1.05028 35.032 0.365298 34.0715 0.109751 32.9642C-0.145796 31.8568 0.0490241 30.6933 0.651354 29.7295L0.659924 29.7167L0.674922 29.6931L0.726343 29.6117C0.99812 29.1833 1.27741 28.7597 1.56407 28.3412C2.25899 27.3163 2.98932 26.3158 3.75374 25.3416C4.60862 24.2618 5.65846 23.0427 6.76829 22.0528C7.32321 21.5579 7.99168 21.0308 8.74799 20.6066C9.45932 20.2081 10.5713 19.7153 11.9318 19.7153H22.6359C23.9964 19.7153 25.1084 20.2081 25.8219 20.6066C26.576 21.0308 27.2466 21.5579 27.7994 22.0528C28.9092 23.0427 29.9612 24.2618 30.814 25.3438C31.8929 26.7156 32.9033 28.1399 33.8414 29.6117L33.8949 29.6931L33.9099 29.7145L33.9164 29.7274C33.9164 29.7274 33.8414 29.6117 33.9164 29.7274C34.5022 30.6905 34.6849 31.8456 34.425 32.9424C34.1651 34.0393 33.4834 34.9895 32.5277 35.5873C31.5721 36.1851 30.4193 36.3822 29.3193 36.1359C28.2193 35.8897 27.2606 35.2199 26.651 34.2717L26.6446 34.2631L26.6103 34.2096C26.5032 34.0408 26.3947 33.8729 26.2846 33.7061V39.0281L27.8337 55.3007C27.9311 56.4099 27.5929 57.5135 26.8908 58.3776C26.1886 59.2418 25.1777 59.7988 24.072 59.9305C22.9663 60.0622 21.8528 59.7584 20.9673 59.0834C20.0818 58.4084 19.4938 57.4152 19.3278 56.3141L17.1403 41.0164L14.9549 56.3141C14.7984 57.4236 14.2136 58.4277 13.3258 59.1112C12.4379 59.7947 11.3176 60.1032 10.205 59.9707C9.09239 59.8382 8.07595 59.2751 7.37348 58.4022C6.671 57.5293 6.33839 56.4159 6.44691 55.3007L8.24664 36.425H8.28521V33.7039C8.17464 33.8716 8.06537 34.0402 7.9574 34.2096L7.92526 34.2631L7.91883 34.2717Z" fill="url(#paint1_linear_428_6740)"/>
<path d="M68.1333 7.99915C68.1333 10.1207 67.2905 12.1553 65.7904 13.6554C64.2903 15.1555 62.2557 15.9983 60.1342 15.9983C58.0127 15.9983 55.978 15.1555 54.4779 13.6554C52.9778 12.1553 52.135 10.1207 52.135 7.99915C52.135 5.87765 52.9778 3.84303 54.4779 2.3429C55.978 0.842765 58.0127 0 60.1342 0C62.2557 0 64.2903 0.842765 65.7904 2.3429C67.2905 3.84303 68.1333 5.87765 68.1333 7.99915V7.99915Z" fill="url(#paint2_linear_428_6740)"/>
<path fill-rule="evenodd" clip-rule="evenodd" d="M50.7805 33.8208C50.1743 34.7685 49.2196 35.4399 48.1227 35.6898C47.0258 35.9398 45.8745 35.7483 44.9176 35.1567C43.9606 34.5652 43.2747 33.621 43.0079 32.528C42.7411 31.435 42.9148 30.281 43.4916 29.315L43.498 29.3022L43.5152 29.2786L43.5644 29.1972L43.7465 28.9101C44.6253 27.5424 45.5639 26.2142 46.5597 24.9293C47.4039 23.8494 48.4451 22.6282 49.5421 21.6362C50.0927 21.1413 50.7569 20.6099 51.509 20.1857C52.216 19.7829 53.3301 19.2837 54.697 19.2837H65.2855C66.6524 19.2837 67.7665 19.7829 68.4757 20.1836C69.2256 20.6121 69.8898 21.1413 70.4404 21.6362C71.5395 22.6282 72.5786 23.8494 73.4228 24.9293C74.4905 26.3012 75.4902 27.7249 76.4181 29.1951L76.4695 29.2786L76.4909 29.315C77.0887 30.2816 77.278 31.4461 77.0173 32.5522C76.7565 33.6584 76.067 34.6157 75.1004 35.2134C74.1338 35.8112 72.9694 36.0006 71.8632 35.7398C70.7571 35.479 69.7998 34.7895 69.202 33.8229L69.1956 33.8122L69.1634 33.7587C68.8411 33.2509 68.509 32.7495 68.1672 32.2546C69.1699 37.2467 71.1453 44.0942 72.178 47.5566C72.2641 47.8377 72.291 48.1337 72.2569 48.4258C72.2228 48.7178 72.1284 48.9996 71.9798 49.2534C71.8312 49.5071 71.6315 49.7272 71.3935 49.8998C71.1554 50.0724 70.8842 50.1938 70.5968 50.2562C63.0187 51.8352 57.7137 51.7945 49.4843 50.2262C49.1889 50.168 48.9092 50.0483 48.6633 49.8747C48.4174 49.7011 48.2109 49.4776 48.0572 49.2188C47.9036 48.96 47.8062 48.6717 47.7715 48.3728C47.7368 48.0738 47.7656 47.7708 47.8559 47.4837C48.9379 44.0043 50.9498 37.2296 51.9032 32.126C51.5313 32.6632 51.1699 33.2075 50.8191 33.7587L50.7869 33.8122L50.7805 33.8208V33.8208ZM50.5641 53.8899V56.778C50.5649 57.5568 50.8484 58.3088 51.362 58.8943C51.8756 59.4797 52.5843 59.8587 53.3564 59.9608C54.1285 60.063 54.9113 59.8813 55.5595 59.4495C56.2077 59.0178 56.677 58.3654 56.8803 57.6136L57.7266 54.477C55.3313 54.3918 52.9413 54.196 50.5641 53.8899ZM62.6801 54.4684L63.5307 57.6158C63.734 58.3677 64.2036 59.0203 64.852 59.452C65.5003 59.8837 66.2835 60.0652 67.0557 59.9628C67.8279 59.8604 68.5366 59.481 69.05 58.8952C69.5634 58.3094 69.8466 57.557 69.8469 56.778V53.8599C67.4682 54.1683 65.0769 54.3707 62.6801 54.4663V54.4684Z" fill="url(#paint3_linear_428_6740)"/>
<defs>
<linearGradient id="paint0_linear_428_6740" x1="25.284" y1="16.1865" x2="6.23496" y2="10.6821" gradientUnits="userSpaceOnUse">
<stop stop-color="#101010"/>
</linearGradient>
<linearGradient id="paint1_linear_428_6740" x1="34.5405" y1="60.0008" x2="-7.4215" y2="49.5693" gradientUnits="userSpaceOnUse">
<stop stop-color="#101010"/>
</linearGradient>
<linearGradient id="paint2_linear_428_6740" x1="68.1333" y1="15.9983" x2="49.0968" y2="10.4788" gradientUnits="userSpaceOnUse">
<stop stop-color="#101010"/>
</linearGradient>
<linearGradient id="paint3_linear_428_6740" x1="77.1316" y1="59.9907" x2="35.437" y2="49.8205" gradientUnits="userSpaceOnUse">
<stop stop-color="#101010"/>
</linearGradient>
</defs>
</svg>
