<svg width="60" height="60" viewBox="0 0 60 60" fill="none" xmlns="http://www.w3.org/2000/svg">
<path fill-rule="evenodd" clip-rule="evenodd" d="M10.0487 21.4791C8.64617 20.1953 7.68867 18.1128 7.50117 14.7491C7.49392 14.5857 7.52036 14.4225 7.57886 14.2697C7.63735 14.117 7.72665 13.9779 7.84119 13.8611C7.95574 13.7444 8.09308 13.6524 8.24468 13.591C8.39628 13.5295 8.5589 13.5 8.72242 13.5041C10.8162 13.5416 12.4199 13.6841 13.6449 14.0453C14.1699 12.6841 15.2162 11.4003 16.7849 10.2266C16.9821 10.0795 17.2215 10 17.4674 10C17.7134 10 17.9528 10.0795 18.1499 10.2266C19.7324 11.4091 20.7824 12.7053 21.3037 14.0791C22.5649 13.6541 24.1812 13.5316 26.2162 13.5016C26.3796 13.498 26.542 13.528 26.6934 13.5898C26.8447 13.6516 26.9817 13.7439 27.0959 13.8609C27.2101 13.9779 27.299 14.1171 27.3571 14.2699C27.4152 14.4227 27.4413 14.5858 27.4337 14.7491C27.2462 18.1128 26.2887 20.1953 24.8862 21.4778C25.5712 21.9891 25.9687 22.8441 25.8237 23.7703C25.3024 27.0315 24.6733 30.2745 23.9374 33.4941H16.2174V35.9941H23.3487C22.3013 40.2993 21.0676 44.557 19.6512 48.7553C19.5074 49.2222 19.2177 49.6307 18.8247 49.9209C18.4316 50.2111 17.956 50.3677 17.4674 50.3677C16.9789 50.3677 16.5032 50.2111 16.1102 49.9209C15.7172 49.6307 15.4275 49.2222 15.2837 48.7553C14.6937 47.0123 14.1369 45.2582 13.6137 43.4941H16.2174V40.9941H12.8937C11.7112 36.7553 10.8312 32.9066 10.1924 29.7441H14.9674V27.2441H9.70867C9.45867 25.8878 9.26242 24.7191 9.11242 23.7691C9.04329 23.3382 9.09408 22.8966 9.25922 22.4927C9.42436 22.0888 9.69749 21.7381 10.0487 21.4791V21.4791ZM18.9662 14.9653L19.8187 17.2153L22.0999 16.4478C22.7287 16.2366 23.5799 16.1103 24.7924 16.0478C24.4212 18.4628 23.5274 19.4828 22.7112 20.0103C21.5474 20.7628 19.8512 20.9916 17.5049 20.9941H17.4299C15.0837 20.9916 13.3874 20.7628 12.2237 20.0091C11.4087 19.4828 10.5162 18.4641 10.1437 16.0541C11.3949 16.1228 12.2849 16.2503 12.9374 16.4428L15.1474 17.0953L15.9774 14.9453C16.2149 14.3266 16.6762 13.6328 17.4674 12.9028C18.2674 13.6403 18.7299 14.3416 18.9662 14.9653V14.9653ZM43.3512 16.8778C40.8849 19.3441 40.6449 22.7866 42.0312 26.0278C48.0987 22.0566 54.9674 26.9691 54.9674 34.7441C54.9674 41.6478 48.8112 47.2441 41.2174 47.2441C33.6237 47.2441 27.4674 41.6478 27.4674 34.7441C27.4674 27.5041 33.4237 22.7441 39.1424 25.3316C38.1662 21.8316 38.6712 18.0216 41.5837 15.1103L43.3512 16.8778V16.8778ZM51.1799 37.5466C51.2229 37.3863 51.2336 37.219 51.2113 37.0546C51.189 36.8901 51.1341 36.7318 51.05 36.5887C50.9658 36.4457 50.854 36.3209 50.7211 36.2215C50.5882 36.1221 50.4368 36.0502 50.2758 36.01C50.1148 35.9697 49.9474 35.9619 49.7833 35.9871C49.6193 36.0122 49.4619 36.0697 49.3203 36.1563C49.1788 36.2429 49.0559 36.3569 48.9588 36.4915C48.8617 36.6261 48.7924 36.7787 48.7549 36.9403C48.517 37.9334 48.0088 38.8413 47.2867 39.5634C46.5646 40.2855 45.6568 40.7936 44.6637 41.0316C44.3442 41.114 44.0702 41.3195 43.9016 41.6031C43.733 41.8868 43.6834 42.2256 43.7636 42.5457C43.8437 42.8657 44.0472 43.1411 44.3297 43.3118C44.6121 43.4824 44.9505 43.5345 45.2712 43.4566C46.7034 43.1086 48.0122 42.3732 49.0544 41.331C50.0966 40.2888 50.8319 38.98 51.1799 37.5478V37.5466Z" fill="url(#paint0_linear_428_6746)"/>
<path d="M43.7174 22.2441C47.4674 22.2441 49.9674 19.7441 49.9674 15.9941C46.2174 15.9941 43.7174 18.4941 43.7174 22.2441Z" fill="black"/>
<defs>
<linearGradient id="paint0_linear_428_6746" x1="54.9674" y1="50.3677" x2="0.11331" y2="31.666" gradientUnits="userSpaceOnUse">
<stop/>
</linearGradient>
</defs>
</svg>
