<svg width="60" height="60" viewBox="0 0 60 60" fill="none" xmlns="http://www.w3.org/2000/svg">
<path fill-rule="evenodd" clip-rule="evenodd" d="M35.5309 19.406C35.5309 26.0154 30.1224 31.3121 23.3733 31.3121C16.6267 31.3121 11.2158 26.0154 11.2158 19.406C11.2158 12.7966 16.6267 7.5 23.3733 7.5C30.1224 7.5 35.5309 12.7966 35.5309 19.406ZM5 44.7934C5 38.6751 13.4638 37.1443 23.3733 37.1443C33.3367 37.1443 41.7467 38.7278 41.7467 44.8509C41.7467 50.9692 33.2828 52.5 23.3733 52.5C13.41 52.5 5 50.9165 5 44.7934ZM40.4336 19.6219C40.4336 22.9877 39.4013 26.1283 37.5911 28.7371C37.4027 29.0054 37.5691 29.3671 37.8969 29.4246C38.3518 29.4988 38.8191 29.5444 39.2961 29.5539C44.0417 29.6761 48.3005 26.684 49.4771 22.178C51.2212 15.4919 46.1038 9.48857 39.5847 9.48857C38.8778 9.48857 38.2002 9.56044 37.5397 9.69219C37.4492 9.71136 37.3514 9.75448 37.3024 9.83114C37.2388 9.92936 37.2853 10.0563 37.3489 10.1402C39.3083 12.8304 40.4336 16.1052 40.4336 19.6219ZM48.2932 34.2557C51.483 34.8666 53.5794 36.1099 54.4478 37.9234C55.1841 39.4086 55.1841 41.1335 54.4478 42.6187C53.1195 45.4263 48.8338 46.3295 47.1679 46.5618C46.823 46.6097 46.5466 46.3223 46.5833 45.9821C47.4345 38.2013 40.6659 34.5121 38.9145 33.664C38.8411 33.6233 38.824 33.5658 38.8313 33.5275C38.8362 33.5035 38.868 33.4652 38.9243 33.458C42.7134 33.3862 46.7888 33.8964 48.2932 34.2557Z" fill="url(#paint0_linear_428_6745)"/>
<defs>
<linearGradient id="paint0_linear_428_6745" x1="55" y1="52.5" x2="-3.43262" y2="33.6756" gradientUnits="userSpaceOnUse">
<stop/>
</linearGradient>
</defs>
</svg>
